<svg width="20" height="18" viewBox="0 0 20 18" fill="none" xmlns="http://www.w3.org/2000/svg">
<path fill-rule="evenodd" clip-rule="evenodd" d="M5.45411 0.328522L8.10961 0.328522C8.71047 0.328513 9.20899 0.328505 9.61711 0.357882C10.0412 0.388411 10.4368 0.45402 10.8163 0.621031C11.6072 0.968994 12.2389 1.6007 12.5868 2.39153C12.7539 2.7711 12.8195 3.16662 12.85 3.59076C12.8794 3.99889 12.8794 4.49741 12.8793 5.09826V5.13059C12.8793 5.62764 12.4764 6.03059 11.9793 6.03059C11.4823 6.03059 11.0793 5.62764 11.0793 5.13059C11.0793 4.48923 11.0788 4.0558 11.0546 3.71999C11.0311 3.39289 10.9886 3.22846 10.9393 3.11645C10.7726 2.73774 10.4701 2.43523 10.0914 2.2686C9.97941 2.21932 9.81498 2.17678 9.48788 2.15324C9.15207 2.12907 8.71864 2.12852 8.07729 2.12852H5.49035C4.77258 2.12852 4.28748 2.1292 3.91293 2.1593C3.54862 2.18857 3.36746 2.24131 3.24408 2.30296C2.92366 2.46306 2.66387 2.72285 2.50376 3.04328C2.44211 3.16666 2.38938 3.34782 2.3601 3.71212C2.33001 4.08667 2.32933 4.57178 2.32933 5.28954V12.3937C2.32933 13.1115 2.33001 13.5966 2.3601 13.9712C2.38938 14.3355 2.44211 14.5166 2.50376 14.64C2.66387 14.9604 2.92366 15.2202 3.24408 15.3803C3.36746 15.442 3.54862 15.4947 3.91293 15.524C4.28748 15.5541 4.77258 15.5548 5.49035 15.5548H7.91833C8.63609 15.5548 9.1212 15.5541 9.49575 15.524C9.86006 15.4947 10.0412 15.442 10.1646 15.3803C10.485 15.2202 10.7448 14.9604 10.9049 14.64C10.9666 14.5166 11.0193 14.3355 11.0486 13.9712C11.0787 13.5966 11.0793 13.1115 11.0793 12.3937V12.1161C11.0793 11.619 11.4823 11.2161 11.9793 11.2161C12.4764 11.2161 12.8793 11.619 12.8793 12.1161V12.43C12.8794 13.1023 12.8794 13.6601 12.8428 14.1153C12.8047 14.589 12.7228 15.0289 12.5151 15.4446C12.1808 16.1137 11.6383 16.6562 10.9692 16.9905C10.5535 17.1982 10.1136 17.2801 9.63993 17.3182C9.18471 17.3548 8.62692 17.3548 7.95457 17.3548H5.4541C4.78176 17.3548 4.22397 17.3548 3.76875 17.3182C3.29512 17.2801 2.85518 17.1982 2.43952 16.9905C1.77041 16.6562 1.22791 16.1137 0.893582 15.4446C0.685889 15.0289 0.603948 14.589 0.565888 14.1153C0.529307 13.6601 0.529316 13.1023 0.529328 12.43V5.2533C0.529316 4.58095 0.529307 4.02316 0.565888 3.56794C0.603948 3.09432 0.685889 2.65437 0.893582 2.23871C1.22791 1.56961 1.77041 1.02711 2.43952 0.692776C2.85518 0.485083 3.29512 0.403143 3.76875 0.365082C4.22397 0.328501 4.78176 0.328511 5.45411 0.328522ZM14.8575 4.93296C15.2077 4.58029 15.7776 4.57835 16.1302 4.92862L19.2073 7.98478C19.3774 8.15374 19.4731 8.38359 19.4731 8.62334C19.4731 8.8631 19.3774 9.09295 19.2073 9.26191L16.1302 12.3181C15.7776 12.6683 15.2077 12.6664 14.8575 12.3137C14.5072 11.9611 14.5091 11.3912 14.8618 11.0409L16.3898 9.52334H6.70434C6.20728 9.52334 5.80434 9.1204 5.80434 8.62334C5.80434 8.12629 6.20728 7.72334 6.70434 7.72334H16.3898L14.8618 6.20575C14.5091 5.85548 14.5072 5.28563 14.8575 4.93296Z" fill="white"/>
</svg>
